<?xml version="1.0" encoding="utf-8"?>
<!-- Generator: Adobe Illustrator 15.0.2, SVG Export Plug-In  -->
<!DOCTYPE svg PUBLIC "-//W3C//DTD SVG 1.1//EN" "http://www.w3.org/Graphics/SVG/1.1/DTD/svg11.dtd" [
	<!ENTITY ns_flows "http://ns.adobe.com/Flows/1.0/">
]>
<svg version="1.1"
	 xmlns="http://www.w3.org/2000/svg" xmlns:xlink="http://www.w3.org/1999/xlink" xmlns:a="http://ns.adobe.com/AdobeSVGViewerExtensions/3.0/"
	 x="0px" y="0px" width="32px" height="32px" viewBox="0.239 0.075 32 32"
	 overflow="visible" enable-background="new 0.239 0.075 32 32" xml:space="preserve">
<defs>
</defs>
<path fill="#AFB7BA" d="M20.932,12.045l6.569-0.681c0,0-5.392-0.03-5.414-0.578c-0.024-0.548,3.447-2.831,3.447-2.831
	s-3.842,1.202-4.36,0.616c-0.457-0.511,4.094-4.954,5.205-6.024c-0.994,0.945-5.488,4.802-6.025,4.492
	C19.734,6.68,22.278,3.48,22.278,3.48s-2.683,2.567-4.242,1.976c-1.56-0.593-1.248-4.285-1.248-4.285s-0.927,2.915-2.293,3.026
	C13.473,4.28,13.204,1.426,13.237,0c-0.061,1.203-0.212,3.329-0.564,3.383c-0.49,0.073-1.501-1.804-1.501-1.804
	s0.375,2.454-0.431,2.872c-0.805,0.417-2.672-2.25-2.672-2.25s1.062,3.083-0.099,4.229c-1.158,1.145-4.618-0.25-4.618-0.25
	s2.649,1.702,2.248,2.597C5.464,9.078,4.981,9.123,4.408,9.056c0.473,0.188,0.815,0.402,0.789,0.616C5.115,10.334,0,9.624,0,9.624
	l7.3,1.736c-0.058-0.245-0.373-1.113-1.589-1.991c0,0,2.31,1.51,2.831,0.83C9.061,9.519,6.638,7.66,6.638,7.66
	s1.958,0.441,1.366-0.633c0,0,1.4,1.438,1.984,1.032c0.59-0.41,0.457-2.83,0.457-2.83s0.893,2.631,1.709,2.431
	c0.814-0.196,0.555-3.399,0.555-3.399s0.71,3.082,1.589,3.158c0.882,0.07,1.759-3.759,1.759-3.759s-0.496,3.137,0.285,3.433
	c0.714,0.274,1.921-0.688,2.104-0.992c0.019-0.026-0.322,0.404-0.322,0.404s-0.012,0.02-0.027,0.046
	c-0.197,0.33-0.623,1.307-0.04,1.94c0.632,0.688,2.65-0.556,2.65-0.556s-2.087,1.665-1.674,2.361
	c0.412,0.694,1.879-0.066,1.879-0.066S19.911,11.224,20.932,12.045"/>
<radialGradient id="SVGID_1_" cx="-3079.2881" cy="706.2793" r="184.9628" gradientTransform="matrix(0.1696 0 0 0.1696 541.3569 -89.6939)" gradientUnits="userSpaceOnUse">
	<stop  offset="0" style="stop-color:#222222"/>
	<stop  offset="0.5337" style="stop-color:#808080"/>
</radialGradient>
<path fill="url(#SVGID_1_)" d="M7.729,17.938l6.635,2.581c-0.013-0.147-0.028-0.283-0.054-0.384
	c-0.053-0.15-0.363-0.556-0.757-0.994c-0.13-0.146-0.271-0.296-0.413-0.445l-6.339-1.9C7.123,17.139,7.437,17.519,7.729,17.938z"/>
<radialGradient id="SVGID_2_" cx="-3079.2798" cy="706.3018" r="185.0331" gradientTransform="matrix(0.1696 0 0 0.1696 541.3569 -89.6939)" gradientUnits="userSpaceOnUse">
	<stop  offset="0" style="stop-color:#222222"/>
	<stop  offset="0.5337" style="stop-color:#808080"/>
</radialGradient>
<path fill="url(#SVGID_2_)" d="M11.383,27.058c-0.006-0.018-0.014-0.034-0.021-0.053c-0.008-0.02-0.02-0.037-0.028-0.055
	c-0.011-0.02-0.018-0.036-0.029-0.056c-0.011-0.018-0.022-0.04-0.034-0.061c-0.011-0.021-0.022-0.037-0.034-0.057
	c-0.015-0.021-0.029-0.041-0.044-0.064c-0.016-0.021-0.028-0.041-0.042-0.062c-0.019-0.022-0.035-0.045-0.053-0.071
	c-0.016-0.021-0.034-0.042-0.051-0.062c-0.021-0.026-0.044-0.052-0.062-0.076c-0.02-0.024-0.039-0.045-0.059-0.067
	c-0.025-0.029-0.053-0.062-0.081-0.094c-0.018-0.02-0.038-0.038-0.058-0.061c-0.049-0.054-0.102-0.106-0.159-0.166
	c-0.662-0.658-1.744-0.799-2.535-0.799c-0.059,0-0.119,0.002-0.176,0.004c-0.011,0-0.022,0-0.034,0
	c-0.12,0.004-0.233,0.01-0.339,0.018c0,0-0.001,0-0.002,0c-0.053,0.004-0.108,0.008-0.156,0.015l0.003,0.082
	c0.858,0.116,2.604,0.49,4.007,1.712C11.391,27.076,11.387,27.067,11.383,27.058z"/>
<radialGradient id="SVGID_3_" cx="-3079.4517" cy="706.3125" r="184.1754" gradientTransform="matrix(0.1696 0 0 0.1696 541.3569 -89.6939)" gradientUnits="userSpaceOnUse">
	<stop  offset="0" style="stop-color:#222222"/>
	<stop  offset="0.5337" style="stop-color:#808080"/>
</radialGradient>
<path fill="url(#SVGID_3_)" d="M12.73,29.665v0.05l0.474,0.319c-0.008-0.019-0.016-0.038-0.021-0.057L12.73,29.665z"/>
<radialGradient id="SVGID_4_" cx="-3079.2861" cy="706.1465" r="184.7066" gradientTransform="matrix(0.1696 0 0 0.1696 541.3569 -89.6939)" gradientUnits="userSpaceOnUse">
	<stop  offset="0" style="stop-color:#222222"/>
	<stop  offset="0.5337" style="stop-color:#808080"/>
</radialGradient>
<polygon fill="url(#SVGID_4_)" points="16.819,14.074 11.139,13.396 9.061,13.491 13.577,14.374 "/>
<radialGradient id="SVGID_5_" cx="-3079.2988" cy="706.3213" r="185.0008" gradientTransform="matrix(0.1696 0 0 0.1696 541.3569 -89.6939)" gradientUnits="userSpaceOnUse">
	<stop  offset="0" style="stop-color:#222222"/>
	<stop  offset="0.5337" style="stop-color:#808080"/>
</radialGradient>
<path fill="url(#SVGID_5_)" d="M18.477,24.072c-0.014-0.456,0.095-0.863,0.268-1.215l-2.29,0.287
	c-0.086,0.101-0.165,0.202-0.241,0.308c-0.017,0.021-0.033,0.045-0.053,0.068c-0.072,0.102-0.145,0.205-0.21,0.311
	c-0.011,0.018-0.022,0.034-0.033,0.054c-0.061,0.097-0.116,0.191-0.173,0.287c-0.009,0.021-0.022,0.041-0.032,0.062
	c-0.059,0.107-0.115,0.214-0.168,0.322c-0.012,0.026-0.023,0.053-0.035,0.077c-0.05,0.103-0.098,0.207-0.142,0.313
	c-0.005,0.008-0.009,0.016-0.011,0.023c-0.046,0.112-0.087,0.226-0.131,0.336c-0.009,0.027-0.02,0.054-0.028,0.082
	c-0.04,0.108-0.074,0.218-0.111,0.327c-0.004,0.02-0.01,0.037-0.016,0.056c-0.03,0.102-0.057,0.198-0.083,0.297
	c-0.006,0.024-0.013,0.048-0.019,0.069c-0.029,0.108-0.056,0.217-0.08,0.322c-0.006,0.024-0.009,0.05-0.016,0.075
	c-0.021,0.1-0.045,0.198-0.062,0.294c-0.003,0.013-0.004,0.024-0.007,0.037c-0.02,0.105-0.037,0.209-0.053,0.312
	c-0.004,0.024-0.008,0.048-0.012,0.073c-0.016,0.102-0.029,0.204-0.041,0.303c0,0.012-0.004,0.023-0.005,0.037
	c-0.011,0.094-0.02,0.182-0.029,0.27c0,0.019-0.003,0.038-0.004,0.057c-0.008,0.095-0.019,0.187-0.023,0.275
	c0,0.019-0.003,0.037-0.003,0.053c-0.005,0.081-0.009,0.164-0.013,0.244c0,0.011,0,0.018,0,0.025
	c-0.004,0.084-0.006,0.168-0.008,0.249c-0.002,0.005-0.002,0.013-0.002,0.021l5.045-1.659l1.469-0.482l-0.438-0.229
	c-0.019,0.002-0.036,0.002-0.053,0.002C19.627,26.416,18.533,25.802,18.477,24.072z"/>
<radialGradient id="SVGID_6_" cx="-3079.3013" cy="706.2959" r="185.0209" gradientTransform="matrix(0.1696 0 0 0.1696 541.3569 -89.6939)" gradientUnits="userSpaceOnUse">
	<stop  offset="0" style="stop-color:#222222"/>
	<stop  offset="0.5337" style="stop-color:#808080"/>
</radialGradient>
<path fill="url(#SVGID_6_)" d="M24.05,16.452l-0.132,4.071c-0.001,0.033-0.005,0.064-0.012,0.094
	c2.278-0.625,5.986-1.798,6.857-2.379c-0.026-0.009-0.056-0.021-0.091-0.032C30.418,18.112,27.711,17.283,24.05,16.452z"/>
<linearGradient id="SVGID_7_" gradientUnits="userSpaceOnUse" x1="24.6377" y1="33.7207" x2="12.43" y2="9.3053">
	<stop  offset="0" style="stop-color:#242728"/>
	<stop  offset="1" style="stop-color:#849499"/>
</linearGradient>
<path fill="url(#SVGID_7_)" d="M31.136,16.923c-0.312-0.111-3.169-0.993-7.041-1.859l0.026-0.863
	c0.012-0.352-0.248-0.656-0.601-0.697l-0.166-0.02l0,0l-12.11-1.449c-0.037-0.005-0.076-0.005-0.11-0.004l-7.793,0.36l0,0
	L3.18,12.397c-0.186,0.009-0.357,0.091-0.481,0.23c-0.122,0.138-0.181,0.322-0.167,0.507l0.163,1.957
	c0.02,0.242,0.168,0.454,0.387,0.56l0.042,0.021l0,0l0.028,0.016l0,0c0.001,0,0.001,0,0.001,0c0.372,0.195,2.294,1.267,3.562,3.187
	c0.495,0.745,0.834,1.532,1.009,2.342c0.155,0.716,0.102,1.24-0.158,1.562c-0.349,0.433-1.063,0.499-1.453,0.499
	c-0.234,0-0.392-0.023-0.392-0.023c-0.196-0.032-0.398,0.035-0.548,0.164c-0.053,0.045-0.094,0.099-0.129,0.155
	c-0.008,0.012-0.015,0.025-0.021,0.037c-0.012,0.02-0.021,0.037-0.031,0.057c-0.015,0.035-0.025,0.072-0.034,0.113
	c-0.003,0.009-0.004,0.021-0.008,0.031c-0.008,0.042-0.015,0.086-0.015,0.13v1.209c0,0.221,0.109,0.432,0.291,0.558l1.108,0.776l0,0
	l0.114,0.081c0.109,0.074,0.235,0.118,0.368,0.122c0.032,0.001,3.11,0.146,4.529,2.414l0.035,1.008
	c0.008,0.219,0.119,0.419,0.301,0.542l1.855,1.252l0,0c0,0,0.003,0,0.003,0.002l0.02,0.012c0.113,0.076,0.245,0.114,0.378,0.114
	c0.073,0,0.152-0.012,0.224-0.037l9.015-3.141c0.275-0.096,0.458-0.353,0.458-0.644v-1.389c0-0.255-0.145-0.486-0.37-0.604
	l-0.07-0.04l0,0l-2.047-1.061c-0.133-0.069-0.274-0.095-0.42-0.069c-0.002,0-0.037,0.005-0.091,0.005
	c-0.331,0-0.768-0.106-0.797-1.026c-0.021-0.684,0.639-1.255,0.882-1.443c1.156-0.123,2.33-0.327,2.933-0.484
	c0.386-0.101,2.361-0.645,4.28-1.272c3.59-1.179,4.026-1.676,4.185-2.116C32.324,18.132,32.322,17.355,31.136,16.923z
	 M13.553,19.142c0.394,0.438,0.704,0.844,0.757,0.994c0.025,0.101,0.041,0.236,0.054,0.384l-6.635-2.581
	c-0.292-0.42-0.605-0.8-0.928-1.143l6.339,1.9C13.282,18.846,13.423,18.995,13.553,19.142z M11.139,13.396l5.681,0.679l-3.242,0.3
	l-4.517-0.883L11.139,13.396z M7.388,25.372L7.385,25.29c0.048-0.007,0.104-0.011,0.156-0.015c0.001,0,0.002,0,0.002,0
	c0.105-0.008,0.219-0.014,0.339-0.018c0.012,0,0.023,0,0.034,0c0.057-0.002,0.117-0.004,0.176-0.004
	c0.791,0,1.873,0.141,2.535,0.799c0.058,0.06,0.11,0.112,0.159,0.166c0.02,0.022,0.04,0.041,0.058,0.061
	c0.028,0.031,0.056,0.064,0.081,0.094c0.02,0.022,0.039,0.043,0.059,0.067c0.019,0.024,0.042,0.05,0.062,0.076
	c0.017,0.021,0.035,0.042,0.051,0.062c0.018,0.026,0.034,0.049,0.053,0.071c0.014,0.021,0.026,0.041,0.042,0.062
	c0.015,0.023,0.029,0.043,0.044,0.064c0.012,0.02,0.023,0.036,0.034,0.057c0.012,0.021,0.023,0.043,0.034,0.061
	c0.012,0.02,0.019,0.036,0.029,0.056c0.009,0.018,0.021,0.035,0.028,0.055c0.008,0.019,0.016,0.035,0.021,0.053
	c0.004,0.01,0.008,0.019,0.012,0.026C9.991,25.862,8.246,25.488,7.388,25.372z M12.73,29.715v-0.05l0.453,0.312
	c0.005,0.019,0.013,0.038,0.021,0.057L12.73,29.715z M20.636,26.416c0.017,0,0.034,0,0.053-0.002l0.438,0.229l-1.469,0.482
	l-5.045,1.659c0-0.008,0-0.016,0.002-0.021c0.002-0.081,0.004-0.165,0.008-0.249c0-0.008,0-0.015,0-0.025
	c0.004-0.08,0.008-0.163,0.013-0.244c0-0.016,0.003-0.034,0.003-0.053c0.005-0.089,0.016-0.181,0.023-0.275
	c0.001-0.019,0.004-0.038,0.004-0.057c0.01-0.088,0.019-0.176,0.029-0.27c0.001-0.014,0.005-0.025,0.005-0.037
	c0.012-0.099,0.025-0.201,0.041-0.303c0.004-0.025,0.008-0.049,0.012-0.073c0.016-0.104,0.033-0.207,0.053-0.312
	c0.003-0.013,0.004-0.024,0.007-0.037c0.017-0.096,0.041-0.194,0.062-0.294c0.007-0.025,0.01-0.051,0.016-0.075
	c0.024-0.105,0.051-0.214,0.08-0.322c0.006-0.021,0.013-0.045,0.019-0.069c0.026-0.099,0.053-0.195,0.083-0.297
	c0.006-0.019,0.012-0.036,0.016-0.056c0.037-0.109,0.071-0.219,0.111-0.327c0.009-0.028,0.02-0.055,0.028-0.082
	c0.044-0.11,0.085-0.224,0.131-0.336c0.002-0.008,0.006-0.016,0.011-0.023c0.044-0.106,0.092-0.211,0.142-0.313
	c0.012-0.024,0.023-0.051,0.035-0.077c0.053-0.108,0.109-0.215,0.168-0.322c0.01-0.021,0.023-0.041,0.032-0.062
	c0.057-0.096,0.112-0.19,0.173-0.287c0.011-0.02,0.022-0.036,0.033-0.054c0.065-0.105,0.138-0.209,0.21-0.311
	c0.02-0.023,0.036-0.047,0.053-0.068c0.076-0.105,0.155-0.207,0.241-0.308l2.29-0.287c-0.173,0.352-0.281,0.759-0.268,1.215
	C18.533,25.802,19.627,26.416,20.636,26.416z M23.906,20.617c0.007-0.029,0.011-0.061,0.012-0.094l0.132-4.071
	c3.661,0.831,6.368,1.66,6.623,1.754c0.035,0.012,0.064,0.023,0.091,0.032C29.893,18.819,26.185,19.992,23.906,20.617z"/>
<polygon fill="#E2E6E8" points="13.476,15.07 23.273,14.16 11.165,12.711 3.369,13.071 13.476,15.048 "/>
<path fill="#E2E6E8" d="M14.974,19.97c-0.138-0.544-1.471-1.876-1.471-1.876L3.471,15.086c0.455,0.24,2.463,1.369,3.814,3.409
	l7.766,3.027C15.051,21.522,15.107,20.515,14.974,19.97z"/>
<path fill="#E2E6E8" d="M13.945,29.673l0.047,0.032v0.003l8.888-2.922l-2.05-1.063c0,0-1.611,0.27-1.672-1.672
	c-0.038-1.121,0.514-1.425,0.514-1.425l-3.559-0.127C13.844,24.979,13.889,28.686,13.945,29.673z"/>
<path fill="#E2E6E8" d="M30.904,17.563c-0.448-0.162-4.771-1.468-9.912-2.447l-3.955,0.367c0,0-2.407,0.123-2.12,2.815
	c0.284,2.69,2.405,3.67,3.792,3.711c1.389,0.043,3.835-0.325,4.772-0.571c0.938-0.243,7.701-2.135,7.994-2.956
	C31.679,17.911,31.354,17.726,30.904,17.563z"/>
<path fill="#E2E6E8" d="M13.949,29.722c-0.003-0.017-0.003-0.032-0.004-0.049l-1.855-1.273c-0.028-0.706,0.516-1.332-0.979-2.828
	C9.64,24.103,6.784,24.679,6.684,24.7v0.002C6.679,24.7,6.679,24.7,6.679,24.7l-1.062-0.759v1.209l1.107,0.769v0.008l0.115,0.08
	c0,0,3.59,0.122,5.181,2.897l0.041,1.182l1.858,1.252l0.072-1.63L13.949,29.722z"/>
<path fill="#878E91" d="M18.623,22.12c0,0-1.072-0.536-1.242-1.638c0,0,0.757,1.414,1.931,1.508
	C19.312,21.99,18.993,22.116,18.623,22.12z"/>
<path fill="#878E91" d="M19.518,22.082c0,0-0.898-0.45-1.039-1.376c0,0,0.632,1.186,1.616,1.264
	C20.095,21.97,19.83,22.075,19.518,22.082z"/>
<path fill="#878E91" d="M20.288,21.994c0,0-0.693-0.348-0.803-1.062c0,0,0.488,0.916,1.247,0.978
	C20.732,21.909,20.53,21.99,20.288,21.994z"/>
<path fill="#878E91" d="M20.944,21.943c0,0-0.551-0.274-0.64-0.841c0,0,0.389,0.726,0.993,0.772
	C21.298,21.875,21.135,21.941,20.944,21.943z"/>
<path fill="#878E91" d="M11.406,19.038c0,0-0.038-0.779-0.51-1.15l0.339,0.121C11.346,18.188,11.539,18.592,11.406,19.038z"/>
<path fill="#878E91" d="M10.826,18.6c0,0-0.032-0.556-0.352-0.866l0.234,0.084C10.794,17.975,10.921,18.274,10.826,18.6z"/>
<path fill="#878E91" d="M12.395,19.405c0,0-0.038-0.781-0.507-1.153l0.336,0.124C12.333,18.555,12.527,18.96,12.395,19.405z"/>
<path fill="#878E91" d="M11.814,18.968c0,0-0.029-0.558-0.353-0.866l0.235,0.084C11.785,18.342,11.912,18.64,11.814,18.968z"/>
<path fill="#878E91" d="M10.402,18.713c0,0-0.038-0.781-0.507-1.153l0.335,0.124C10.342,17.861,10.535,18.267,10.402,18.713z"/>
<path fill="#878E91" d="M9.359,18.388c0,0-0.043-0.779-0.509-1.15l0.335,0.119C9.295,17.537,9.49,17.942,9.359,18.388z"/>
<path fill="#878E91" d="M9.821,18.275c0,0-0.028-0.558-0.352-0.866l0.234,0.085C9.794,17.65,9.919,17.948,9.821,18.275z"/>
<path fill="#878E91" d="M29.604,18.06l-9.804-1.865c0.01-0.001,0.015-0.002,0.021-0.005l-0.116-0.012l-2.139-0.407l-0.276,0.176
	l-0.021-0.003c-0.243,0.144-1.026,0.667-1.168,1.598c0,0,0.557-1.033,1.453-1.392l0.304,0.056c-0.264,0.224-0.579,0.593-0.661,1.111
	c0,0,0.37-0.69,0.984-1.051L18.6,16.34c-0.172,0.175-0.345,0.425-0.394,0.75c0,0,0.227-0.422,0.609-0.711l0.413,0.076
	c-0.091,0.122-0.173,0.277-0.2,0.464c0,0,0.125-0.229,0.34-0.438l10.109,1.835C29.855,18.229,29.604,18.06,29.604,18.06z"/>
<linearGradient id="SVGID_8_" gradientUnits="userSpaceOnUse" x1="22.8457" y1="27.7822" x2="11.8784" y2="6.5674">
	<stop  offset="0" style="stop-color:#242728"/>
	<stop  offset="1" style="stop-color:#243446"/>
</linearGradient>
<path fill="url(#SVGID_8_)" d="M18.348,21.98c0,0,0.791,0.14,2.946-0.142l0.02,0.142l-2.831,0.302L18.348,21.98z"/>
</svg>
